<svg version="1.1" id="Layer_1" xmlns="http://www.w3.org/2000/svg" xmlns:xlink="http://www.w3.org/1999/xlink" x="0px" y="0px"
	 width="100%" viewBox="0 0 626 626" enable-background="new 0 0 626 626" xml:space="preserve">
<path fill="#232323" opacity="1.000000" stroke="none" 
	d="
M1.000000,307.000000 
	C1.000000,204.686981 1.000000,102.873962 1.000000,1.030473 
	C209.604706,1.030473 418.209442,1.030473 626.907104,1.030473 
	C626.907104,209.563049 626.907104,418.126160 626.907104,626.844604 
	C418.333435,626.844604 209.666718,626.844604 1.000000,626.844604 
	C1.000000,520.457153 1.000000,413.978577 1.000000,307.000000 
M44.999565,363.500000 
	C44.999565,436.922211 44.999565,510.344391 44.999565,583.705200 
	C224.649307,583.705200 403.706238,583.705200 582.704102,583.705200 
	C582.704102,428.351410 582.704102,273.292969 582.704102,118.294769 
	C403.350708,118.294769 224.293793,118.294769 44.999565,118.294769 
	C44.999565,199.893158 44.999565,281.196564 44.999565,363.500000 
M103.590141,85.078011 
	C104.851151,83.532280 106.204079,82.052017 107.359024,80.430733 
	C119.626671,63.209595 114.588539,38.763111 96.608963,28.133125 
	C77.887344,17.064423 53.931938,24.157364 44.685104,43.507225 
	C37.105549,59.368164 41.753632,78.091568 55.897285,88.672073 
	C70.208755,99.378105 89.052368,98.144859 103.590141,85.078011 
M238.690964,70.582550 
	C239.108948,71.669304 239.483078,72.775337 239.951477,73.839897 
	C246.597870,88.945099 262.242432,97.787926 278.405548,95.589653 
	C294.538788,93.395447 307.174744,80.743210 309.634186,64.320877 
	C311.987335,48.608120 303.354095,32.545090 288.414154,26.099821 
	C274.713562,20.189222 261.443939,21.847706 250.036743,31.486982 
	C238.137314,41.542198 234.617783,54.707993 238.690964,70.582550 
M159.443924,93.273880 
	C160.702988,93.706139 161.941345,94.215744 163.224243,94.558914 
	C179.268494,98.850731 195.697205,92.327362 204.290878,78.276894 
	C212.675461,64.568260 210.912781,46.938671 199.938339,34.745056 
	C189.298462,22.923180 171.787781,19.259850 157.454117,26.409475 
	C144.132248,33.054420 136.750900,43.968769 136.718338,59.087803 
	C136.684006,75.036713 144.528931,86.132225 159.443924,93.273880 
z"/>
<path fill="#FFFFFF" opacity="1.000000" stroke="none" 
	d="
M44.999565,363.000000 
	C44.999565,281.196564 44.999565,199.893158 44.999565,118.294769 
	C224.293793,118.294769 403.350708,118.294769 582.704102,118.294769 
	C582.704102,273.292969 582.704102,428.351410 582.704102,583.705200 
	C403.706238,583.705200 224.649307,583.705200 44.999565,583.705200 
	C44.999565,510.344391 44.999565,436.922211 44.999565,363.000000 
M339.393555,356.968964 
	C348.831482,337.375793 358.295227,317.794983 367.701385,298.186584 
	C382.706451,266.906647 397.806488,235.670715 412.513947,204.251190 
	C414.747803,199.478958 416.378204,193.733673 416.041351,188.585419 
	C415.216705,175.981247 406.698029,167.875748 393.703735,165.550079 
	C383.738892,163.766632 372.812256,169.692490 367.760284,180.132278 
	C353.664917,209.259964 339.756042,238.477859 325.749786,267.648743 
	C303.905212,313.144592 282.024872,358.623291 260.190857,404.124207 
	C245.253159,435.253601 230.250931,466.353271 215.587631,497.611694 
	C213.403793,502.267090 211.771255,507.750732 211.892990,512.802795 
	C212.170486,524.318359 220.921631,533.848206 231.752747,536.064514 
	C243.695786,538.508362 254.748322,533.199768 260.228668,522.003784 
	C269.498688,503.065582 278.609222,484.048920 287.721222,465.033844 
	C304.867310,429.253082 321.966705,393.449951 339.393555,356.968964 
M188.618378,420.895416 
	C186.746826,418.001465 184.858887,415.117920 183.006348,412.211853 
	C170.852203,393.145660 158.663483,374.101074 146.648285,354.947693 
	C145.814880,353.619202 145.524017,350.999634 146.275253,349.773499 
	C154.662521,336.084259 163.264359,322.525543 171.888229,308.982544 
	C182.504257,292.310974 193.416275,275.823212 203.778351,258.996155 
	C210.812469,247.573349 206.807938,233.435562 195.754944,225.829575 
	C184.435150,218.039978 169.558411,220.538971 161.573090,231.447678 
	C156.580688,238.267746 152.192078,245.534973 147.629715,252.663742 
	C129.441650,281.083038 111.250557,309.500549 93.150528,337.975891 
	C87.024940,347.612793 87.360161,357.273224 93.528511,366.893036 
	C109.051376,391.101685 124.463982,415.380981 139.965393,439.603424 
	C147.128922,450.797089 153.913879,462.277100 161.745789,472.987213 
	C170.476730,484.926636 184.276321,486.002380 197.742096,476.844482 
	C207.237076,470.387085 210.000214,455.602509 203.485840,444.608734 
	C198.855820,436.795074 193.832443,429.214508 188.618378,420.895416 
M431.084686,226.477386 
	C419.031128,237.369339 417.668549,249.298416 426.900848,263.769958 
	C445.039734,292.202362 463.190094,320.627502 481.401459,349.013458 
	C482.825836,351.233704 483.052460,352.829315 481.427521,355.208527 
	C476.649994,362.203766 472.239990,369.450134 467.692291,376.602081 
	C453.161255,399.454193 438.535461,422.246918 424.160706,445.196899 
	C419.598633,452.480499 419.609619,460.503967 423.411652,468.054779 
	C432.660706,486.423431 455.276337,488.183594 467.422455,471.517883 
	C471.215118,466.313995 474.228577,460.548248 477.717743,455.116119 
	C496.840271,425.345123 516.100952,395.662140 535.083618,365.802429 
	C540.620361,357.093140 540.399719,347.579102 535.219971,338.895935 
	C528.003113,326.797882 519.930054,315.212982 512.318909,303.347229 
	C497.562378,280.341614 482.883636,257.286102 468.150604,234.265381 
	C459.366547,220.540054 446.326996,217.623566 431.084686,226.477386 
z"/>
<path fill="#F53B3B" opacity="1.000000" stroke="none" 
	d="
M103.336609,85.330978 
	C89.052368,98.144859 70.208755,99.378105 55.897285,88.672073 
	C41.753632,78.091568 37.105549,59.368164 44.685104,43.507225 
	C53.931938,24.157364 77.887344,17.064423 96.608963,28.133125 
	C114.588539,38.763111 119.626671,63.209595 107.359024,80.430733 
	C106.204079,82.052017 104.851151,83.532280 103.336609,85.330978 
z"/>
<path fill="#01FC5A" opacity="1.000000" stroke="none" 
	d="
M238.570923,70.196732 
	C234.617783,54.707993 238.137314,41.542198 250.036743,31.486982 
	C261.443939,21.847706 274.713562,20.189222 288.414154,26.099821 
	C303.354095,32.545090 311.987335,48.608120 309.634186,64.320877 
	C307.174744,80.743210 294.538788,93.395447 278.405548,95.589653 
	C262.242432,97.787926 246.597870,88.945099 239.951477,73.839897 
	C239.483078,72.775337 239.108948,71.669304 238.570923,70.196732 
z"/>
<path fill="#FDD121" opacity="1.000000" stroke="none" 
	d="
M159.094330,93.111313 
	C144.528931,86.132225 136.684006,75.036713 136.718338,59.087803 
	C136.750900,43.968769 144.132248,33.054420 157.454117,26.409475 
	C171.787781,19.259850 189.298462,22.923180 199.938339,34.745056 
	C210.912781,46.938671 212.675461,64.568260 204.290878,78.276894 
	C195.697205,92.327362 179.268494,98.850731 163.224243,94.558914 
	C161.941345,94.215744 160.702988,93.706139 159.094330,93.111313 
z"/>
<path fill="#0127FD" opacity="1.000000" stroke="none" 
	d="
M339.239563,357.312561 
	C321.966705,393.449951 304.867310,429.253082 287.721222,465.033844 
	C278.609222,484.048920 269.498688,503.065582 260.228668,522.003784 
	C254.748322,533.199768 243.695786,538.508362 231.752747,536.064514 
	C220.921631,533.848206 212.170486,524.318359 211.892990,512.802795 
	C211.771255,507.750732 213.403793,502.267090 215.587631,497.611694 
	C230.250931,466.353271 245.253159,435.253601 260.190857,404.124207 
	C282.024872,358.623291 303.905212,313.144592 325.749786,267.648743 
	C339.756042,238.477859 353.664917,209.259964 367.760284,180.132278 
	C372.812256,169.692490 383.738892,163.766632 393.703735,165.550079 
	C406.698029,167.875748 415.216705,175.981247 416.041351,188.585419 
	C416.378204,193.733673 414.747803,199.478958 412.513947,204.251190 
	C397.806488,235.670715 382.706451,266.906647 367.701385,298.186584 
	C358.295227,317.794983 348.831482,337.375793 339.239563,357.312561 
z"/>
<path fill="#0127FD" opacity="1.000000" stroke="none" 
	d="
M188.801498,421.212646 
	C193.832443,429.214508 198.855820,436.795074 203.485840,444.608734 
	C210.000214,455.602509 207.237076,470.387085 197.742096,476.844482 
	C184.276321,486.002380 170.476730,484.926636 161.745789,472.987213 
	C153.913879,462.277100 147.128922,450.797089 139.965393,439.603424 
	C124.463982,415.380981 109.051376,391.101685 93.528511,366.893036 
	C87.360161,357.273224 87.024940,347.612793 93.150528,337.975891 
	C111.250557,309.500549 129.441650,281.083038 147.629715,252.663742 
	C152.192078,245.534973 156.580688,238.267746 161.573090,231.447678 
	C169.558411,220.538971 184.435150,218.039978 195.754944,225.829575 
	C206.807938,233.435562 210.812469,247.573349 203.778351,258.996155 
	C193.416275,275.823212 182.504257,292.310974 171.888229,308.982544 
	C163.264359,322.525543 154.662521,336.084259 146.275253,349.773499 
	C145.524017,350.999634 145.814880,353.619202 146.648285,354.947693 
	C158.663483,374.101074 170.852203,393.145660 183.006348,412.211853 
	C184.858887,415.117920 186.746826,418.001465 188.801498,421.212646 
z"/>
<path fill="#0127FD" opacity="1.000000" stroke="none" 
	d="
M431.383301,226.268417 
	C446.326996,217.623566 459.366547,220.540054 468.150604,234.265381 
	C482.883636,257.286102 497.562378,280.341614 512.318909,303.347229 
	C519.930054,315.212982 528.003113,326.797882 535.219971,338.895935 
	C540.399719,347.579102 540.620361,357.093140 535.083618,365.802429 
	C516.100952,395.662140 496.840271,425.345123 477.717743,455.116119 
	C474.228577,460.548248 471.215118,466.313995 467.422455,471.517883 
	C455.276337,488.183594 432.660706,486.423431 423.411652,468.054779 
	C419.609619,460.503967 419.598633,452.480499 424.160706,445.196899 
	C438.535461,422.246918 453.161255,399.454193 467.692291,376.602081 
	C472.239990,369.450134 476.649994,362.203766 481.427521,355.208527 
	C483.052460,352.829315 482.825836,351.233704 481.401459,349.013458 
	C463.190094,320.627502 445.039734,292.202362 426.900848,263.769958 
	C417.668549,249.298416 419.031128,237.369339 431.383301,226.268417 
z"/>
</svg>