<svg width="910" height="512" xmlns="http://www.w3.org/2000/svg" aria-hidden="true" focusable="false" data-prefix="fa-solid" data-icon="upload" class="svg-inline--fa fa-upload fa-w-16" role="img">
 <rect width="100%" height="100%" fill="transparent" />
 <g>
  <title>Layer 1</title>
  <path fill="#888" d="m477.73435,260.05394l-45.46875,0c-7.55918,0 -13.64062,-6.08145 -13.64062,-13.64062l0,-95.48437l-49.84512,0c-10.1168,0 -15.17519,-12.21973 -8.01387,-19.38105l86.44746,-86.50429c4.2627,-4.2627 11.25352,-4.2627 15.51621,0l86.50429,86.50429c7.16133,7.16133 2.10293,19.38105 -8.01387,19.38105l-49.84512,0l0,95.48437c0,7.55918 -6.08145,13.64062 -13.64062,13.64062l0.00001,0zm122.76562,-4.54687l0,63.65625c0,7.55918 -6.08145,13.64062 -13.64062,13.64062l-263.71874,0c-7.55918,0 -13.64062,-6.08145 -13.64062,-13.64062l0,-63.65625c0,-7.55918 6.08145,-13.64062 13.64062,-13.64062l77.29687,0l0,4.54687c0,17.5623 14.26582,31.82812 31.82812,31.82812l45.46875,0c17.5623,0 31.82812,-14.26582 31.82812,-31.82812l0,-4.54687l77.29687,0c7.55918,0 13.64062,6.08145 13.64062,13.64062l0.00001,0zm-70.47656,50.01562c0,-6.25195 -5.11523,-11.36719 -11.36719,-11.36719s-11.36719,5.11523 -11.36719,11.36719s5.11523,11.36719 11.36719,11.36719s11.36719,-5.11523 11.36719,-11.36719zm36.375,0c0,-6.25195 -5.11523,-11.36719 -11.36719,-11.36719s-11.36719,5.11523 -11.36719,11.36719s5.11523,11.36719 11.36719,11.36719s11.36719,-5.11523 11.36719,-11.36719z" id="svg_1" stroke="null"/>
 </g>

</svg>
